<svg xmlns:dc="http://purl.org/dc/elements/1.1/" xmlns:cc="http://creativecommons.org/ns#" xmlns:rdf="http://www.w3.org/1999/02/22-rdf-syntax-ns#" xmlns:svg="http://www.w3.org/2000/svg" xmlns="http://www.w3.org/2000/svg" viewBox="0 0 180 180"><metadata><rdf:RDF><cc:Work><dc:format>image/svg+xml</dc:format><dc:type rdf:resource="http://purl.org/dc/dcmitype/StillImage"/><dc:title>Bottts</dc:title><dc:creator><cc:Agent><dc:title>Pablo Stanley</dc:title></cc:Agent></dc:creator><dc:source>https://bottts.com/</dc:source><cc:license rdf:resource="https://bottts.com/"/><dc:contributor><cc:Agent><dc:title>Florian Körner</dc:title></cc:Agent></dc:contributor></cc:Work></rdf:RDF></metadata><mask id="avatarsRadiusMask"><rect width="180" height="180" rx="0" ry="0" x="0" y="0" fill="#fff"/></mask><g mask="url(#avatarsRadiusMask)"><g transform="translate(0, 66)"><path fill-rule="evenodd" clip-rule="evenodd" d="M14.9809 20.9141C14 22.8393 14 25.3595 14 30.4V45.6C14 50.6405 14 53.1607 14.9809 55.0859C15.8438 56.7794 17.2206 58.1562 18.9141 59.0191C20.8393 60 23.3595 60 28.4 60H35.6C40.6405 60 43.1607 60 45.0859 59.0191C46.7794 58.1562 48.1562 56.7794 49.0191 55.0859C50 53.1607 50 50.6405 50 45.6V30.4C50 25.3595 50 22.8393 49.0191 20.9141C48.1562 19.2206 46.7794 17.8438 45.0859 16.9809C43.1607 16 40.6405 16 35.6 16H28.4C23.3595 16 20.8393 16 18.9141 16.9809C17.2206 17.8438 15.8438 19.2206 14.9809 20.9141ZM130.981 20.9141C130 22.8393 130 25.3595 130 30.4V45.6C130 50.6405 130 53.1607 130.981 55.0859C131.844 56.7794 133.221 58.1562 134.914 59.0191C136.839 60 139.36 60 144.4 60H151.6C156.64 60 159.161 60 161.086 59.0191C162.779 58.1562 164.156 56.7794 165.019 55.0859C166 53.1607 166 50.6405 166 45.6V30.4C166 25.3595 166 22.8393 165.019 20.9141C164.156 19.2206 162.779 17.8438 161.086 16.9809C159.161 16 156.64 16 151.6 16H144.4C139.36 16 136.839 16 134.914 16.9809C133.221 17.8438 131.844 19.2206 130.981 20.9141Z" fill="#0076DE"/><mask id="sidesSquareMask0" mask-type="alpha" maskUnits="userSpaceOnUse" x="14" y="16" width="152" height="44"><path fill-rule="evenodd" clip-rule="evenodd" d="M14.9809 20.9141C14 22.8393 14 25.3595 14 30.4V45.6C14 50.6405 14 53.1607 14.9809 55.0859C15.8438 56.7794 17.2206 58.1562 18.9141 59.0191C20.8393 60 23.3595 60 28.4 60H35.6C40.6405 60 43.1607 60 45.0859 59.0191C46.7794 58.1562 48.1562 56.7794 49.0191 55.0859C50 53.1607 50 50.6405 50 45.6V30.4C50 25.3595 50 22.8393 49.0191 20.9141C48.1562 19.2206 46.7794 17.8438 45.0859 16.9809C43.1607 16 40.6405 16 35.6 16H28.4C23.3595 16 20.8393 16 18.9141 16.9809C17.2206 17.8438 15.8438 19.2206 14.9809 20.9141ZM130.981 20.9141C130 22.8393 130 25.3595 130 30.4V45.6C130 50.6405 130 53.1607 130.981 55.0859C131.844 56.7794 133.221 58.1562 134.914 59.0191C136.839 60 139.36 60 144.4 60H151.6C156.64 60 159.161 60 161.086 59.0191C162.779 58.1562 164.156 56.7794 165.019 55.0859C166 53.1607 166 50.6405 166 45.6V30.4C166 25.3595 166 22.8393 165.019 20.9141C164.156 19.2206 162.779 17.8438 161.086 16.9809C159.161 16 156.64 16 151.6 16H144.4C139.36 16 136.839 16 134.914 16.9809C133.221 17.8438 131.844 19.2206 130.981 20.9141Z" fill="white"/></mask><g mask="url(#sidesSquareMask0)"><rect width="180" height="76" fill="#66BB6A"/><rect y="38" width="180" height="38" fill="black" fill-opacity="0.1"/></g></g><g transform="translate(41, 0)"><path fill-rule="evenodd" clip-rule="evenodd" d="M52 5H48V36H40C38.8954 36 38 36.8954 38 38V52H62V38C62 36.8954 61.1046 36 60 36H52V5Z" fill="#E1E6E8"/><mask id="topAntennaMask0" mask-type="alpha" maskUnits="userSpaceOnUse" x="38" y="5" width="24" height="47"><path fill-rule="evenodd" clip-rule="evenodd" d="M52 5H48V36H40C38.8954 36 38 36.8954 38 38V52H62V38C62 36.8954 61.1046 36 60 36H52V5Z" fill="white"/></mask><g mask="url(#topAntennaMask0)"><rect width="100" height="52" fill="#66BB6A"/><rect x="38" y="36" width="24" height="16" fill="white" fill-opacity="0.2"/></g><path fill-rule="evenodd" clip-rule="evenodd" d="M50 16C54.4183 16 58 12.4183 58 8C58 3.58172 54.4183 0 50 0C45.5817 0 42 3.58172 42 8C42 12.4183 45.5817 16 50 16Z" fill="#FFE65C"/><path fill-rule="evenodd" clip-rule="evenodd" d="M53 8C54.6569 8 56 6.65685 56 5C56 3.34315 54.6569 2 53 2C51.3431 2 50 3.34315 50 5C50 6.65685 51.3431 8 53 8Z" fill="white"/></g><g transform="translate(25, 44)"><path d="M0 12C0 5.37259 5.37258 0 12 0H118C124.627 0 130 5.37258 130 12V82C130 102.987 112.987 120 92 120H38C17.0132 120 0 102.987 0 82V12Z" fill="#0076DE"/><mask id="faceSquare01Mask0" mask-type="alpha" maskUnits="userSpaceOnUse" x="0" y="0" width="130" height="120"><path d="M0 12C0 5.37259 5.37258 0 12 0H118C124.627 0 130 5.37258 130 12V82C130 102.987 112.987 120 92 120H38C17.0132 120 0 102.987 0 82V12Z" fill="white"/></mask><g mask="url(#faceSquare01Mask0)"><rect x="-2" y="-2" width="134" height="124" fill="#43A047"/></g></g><g transform="translate(52, 124)"><rect x="4" y="5" width="68" height="22" rx="5" fill="black" fill-opacity="0.2"/><rect x="8" y="9" width="60" height="14" rx="2" fill="white"/><rect x="18" y="9" width="4" height="14" fill="black" fill-opacity="0.1"/><rect x="42" y="9" width="4" height="14" fill="black" fill-opacity="0.1"/><rect x="30" y="9" width="4" height="14" fill="black" fill-opacity="0.1"/><rect x="54" y="9" width="4" height="14" fill="black" fill-opacity="0.1"/></g><g transform="translate(38, 76)"><path fill-rule="evenodd" clip-rule="evenodd" d="M52 48C65.2548 48 76 37.2548 76 24C76 10.7452 65.2548 0 52 0C38.7452 0 28 10.7452 28 24C28 37.2548 38.7452 48 52 48Z" fill="white" fill-opacity="0.4"/><path fill-rule="evenodd" clip-rule="evenodd" d="M52 44C63.0457 44 72 35.0457 72 24C72 12.9543 63.0457 4 52 4C40.9543 4 32 12.9543 32 24C32 35.0457 40.9543 44 52 44Z" fill="black" fill-opacity="0.8"/><path d="M64.5726 15.8153C64.8743 16.2779 65.4939 16.4082 65.9565 16.1064C66.419 15.8046 66.5494 15.185 66.2476 14.7225L64.5726 15.8153ZM61.5815 9.95547C61.1256 9.64384 60.5033 9.76084 60.1917 10.2168C59.88 10.6728 59.997 11.295 60.453 11.6067L61.5815 9.95547ZM56.3568 9.64222C56.8854 9.80237 57.4437 9.50373 57.6039 8.97518C57.764 8.44663 57.4654 7.88832 56.9368 7.72816L56.3568 9.64222ZM45.7206 8.19769C45.2074 8.40179 44.9569 8.98326 45.161 9.49645C45.3651 10.0096 45.9465 10.2602 46.4597 10.0561L45.7206 8.19769ZM41.7603 13.0388C42.1638 12.6617 42.1852 12.0289 41.8081 11.6254C41.431 11.2219 40.7981 11.2005 40.3947 11.5776L41.7603 13.0388ZM36.4567 17.1052C36.2325 17.6099 36.4599 18.2008 36.9646 18.425C37.4694 18.6492 38.0603 18.4218 38.2845 17.9171L36.4567 17.1052ZM66.2476 14.7225C65.0212 12.8427 63.433 11.2208 61.5815 9.95547L60.453 11.6067C62.0875 12.7238 63.49 14.1559 64.5726 15.8153L66.2476 14.7225ZM56.9368 7.72816C55.3733 7.25438 53.7155 7 52.0001 7V9C53.5169 9 54.9793 9.2248 56.3568 9.64222L56.9368 7.72816ZM52.0001 7C49.784 7 47.6646 7.42456 45.7206 8.19769L46.4597 10.0561C48.1724 9.37496 50.0413 9 52.0001 9V7ZM40.3947 11.5776C38.7378 13.1261 37.3906 15.0029 36.4567 17.1052L38.2845 17.9171C39.108 16.0633 40.2968 14.4066 41.7603 13.0388L40.3947 11.5776Z" fill="white" fill-opacity="0.9"/><path fill-rule="evenodd" clip-rule="evenodd" d="M52 34C57.5228 34 62 29.5228 62 24C62 18.4772 57.5228 14 52 14C46.4772 14 42 18.4772 42 24C42 29.5228 46.4772 34 52 34Z" fill="#C6080C"/><path fill-rule="evenodd" clip-rule="evenodd" d="M52 28C54.2091 28 56 26.2091 56 24C56 21.7909 54.2091 20 52 20C49.7909 20 48 21.7909 48 24C48 26.2091 49.7909 28 52 28Z" fill="#EE9337"/><path fill-rule="evenodd" clip-rule="evenodd" d="M52 25C52.5523 25 53 24.5523 53 24C53 23.4477 52.5523 23 52 23C51.4477 23 51 23.4477 51 24C51 24.5523 51.4477 25 52 25Z" fill="#F5F94F"/></g></g></svg>